<svg xmlns="http://www.w3.org/2000/svg" version="1.1" xmlnsXlink="http://www.w3.org/1999/xlink" xmlnsSvgjs="http://svgjs.dev/svgjs" width="1440" height="560" preserveAspectRatio="none" viewBox="0 0 1440 560">
    <g mask="url(&quot;#SvgjsMask1000&quot;)" fill="none">
        <rect width="1440" height="560" x="0" y="0" fill="#0e2a47"></rect>
        <path d="M0,611.939C116.969,607.589,239.229,587.17,329.348,512.475C415.666,440.931,420.692,314.901,476.02,217.391C538.521,107.238,682.226,29.374,675.213,-97.081C668.262,-222.428,542.463,-307.398,442.691,-383.594C356.707,-449.26,253.745,-483.104,146.963,-500.509C50.141,-516.291,-47.139,-508.635,-140.547,-478.659C-232.205,-449.244,-306.138,-390.347,-381.79,-330.823C-474.684,-257.733,-594.674,-202.788,-633.196,-91.04C-673.396,25.575,-639.813,156.588,-588.477,268.748C-537.167,380.852,-451.979,475.464,-345.478,537.574C-241.617,598.144,-120.149,616.408,0,611.939" fill="#0b2239"></path>
        <path d="M1440 910.65C1522.962 915.438 1604.526 965.78 1682.745 937.7180000000001 1766.224 907.769 1845.854 841.716 1870.012 756.38 1893.853 672.162 1815.8319999999999 594.383 1804.509 507.591 1792.959 419.062 1862.22 312.274 1803.319 245.18200000000002 1744.319 177.978 1632.253 212.98700000000002 1542.89 209.58999999999997 1474.457 206.98899999999998 1408.098 208.27800000000002 1342.417 227.663 1276.814 247.02499999999998 1219.325 280.381 1164.49 321.269 1096.359 372.071 996.9870000000001 410.445 984.537 494.514 972.095 578.526 1065.495 637.94 1106.585 712.266 1143.776 779.54 1148.557 871.395 1214.618 910.702 1280.5149999999999 949.9110000000001 1363.4470000000001 906.232 1440 910.65" fill="#113255"></path>
    </g>
    <defs>
        <mask id="SvgjsMask1000">
            <rect width="1440" height="560" fill="#ffffff"></rect>
        </mask>
    </defs>
</svg>