<svg xmlns="http://www.w3.org/2000/svg" version="1.1" xmlns:xlink="http://www.w3.org/1999/xlink" xmlns:svgjs="http://svgjs.dev/svgjs" width="3000" height="1500" preserveAspectRatio="none" viewBox="0 0 3000 1500"><g mask="url(&quot;#SvgjsMask1681&quot;)" fill="none"><rect width="3000" height="1500" x="0" y="0" fill="url(&quot;#SvgjsLinearGradient1682&quot;)"></rect><path d="M -1025.0017862093084,190 C -725,404.4 -125,1173.8 474.9982137906915,1262 C 1075,1350.2 1375,695.4 1974.9982137906916,631 C 2575,566.6 3270,988.2 3474.9982137906914,940 C 3680,891.8 3095,500 3000,390" stroke="rgba(51, 121, 194, 0.58)" stroke-width="2"></path><path d="M -2626.9586619814254,316 C -2326.96,452.4 -1726.96,941.4 -1126.9586619814252,998 C -526.96,1054.6 -226.96,543.2 373.04133801857483,599 C 973.04,654.8 1347.65,1259 1873.0413380185748,1277 C 2398.43,1295 2774.61,806.6 3000,689" stroke="rgba(51, 121, 194, 0.58)" stroke-width="2"></path><path d="M -1756.492368376102,241 C -1456.49,354.2 -856.49,823.6 -256.4923683761019,807 C 343.51,790.4 643.51,75 1243.507631623898,158 C 1843.51,241 2392.21,1162.8 2743.5076316238983,1222 C 3094.81,1281.2 2948.7,607.6 3000,454" stroke="rgba(51, 121, 194, 0.58)" stroke-width="2"></path><path d="M -2337.3545811734243,524 C -2037.35,639.2 -1437.35,1166.2 -837.3545811734243,1100 C -237.35,1033.8 62.65,229 662.6454188265757,193 C 1262.65,157 1695.17,844.6 2162.6454188265757,920 C 2630.12,995.4 2832.53,640 3000,570" stroke="rgba(51, 121, 194, 0.58)" stroke-width="2"></path></g><defs><mask id="SvgjsMask1681"><rect width="3000" height="1500" fill="#ffffff"></rect></mask><linearGradient x1="12.5%" y1="-25%" x2="87.5%" y2="125%" gradientUnits="userSpaceOnUse" id="SvgjsLinearGradient1682"><stop stop-color="#0e2a47" offset="0"></stop><stop stop-color="rgba(30, 86, 158, 1)" offset="1"></stop></linearGradient></defs></svg>