<svg xmlns="http://www.w3.org/2000/svg" version="1.1" xmlnsXlink="http://www.w3.org/1999/xlink" xmlnsSvgjs="http://svgjs.dev/svgjs" width="1440" height="560" preserveAspectRatio="none" viewBox="0 0 1440 560">
    <g mask="url(&quot;#SvgjsMask1097&quot;)" fill="none">
        <rect width="1440" height="560" x="0" y="0" fill="rgba(120, 66, 18, 1)"></rect>
        <path d="M0,390.053C97.831,386.721,194.587,482.246,283.222,440.703C370.752,399.678,380.537,280.051,421.503,192.494C462.902,104.012,529.607,22.123,524.718,-75.443C519.668,-176.224,464.406,-269.047,394.718,-342.025C326.949,-412.992,238.126,-469.76,140.342,-477.961C48.826,-485.637,-26.951,-416.878,-112.93,-384.603C-191.211,-355.218,-273.438,-343.947,-342.447,-296.732C-428.204,-238.058,-528.575,-179.907,-557.834,-80.204C-587.81,21.941,-542.416,130.714,-496,226.515C-450.336,320.764,-395.359,427.631,-295.897,460.425C-197.622,492.828,-103.419,393.575,0,390.053" fill="#60350e"></path>
        <path d="M1440 1021.341C1543.701 1011.938 1649.411 1075.299 1745.713 1035.699 1847.805 993.7180000000001 1924.687 902.696 1971.5639999999999 802.7570000000001 2018.6979999999999 702.27 2028.591 587.354 2007.0839999999998 478.466 1986.2269999999999 372.868 1919.42 286.839 1852.944 202.18200000000002 1783.329 113.52800000000002 1719.223 9.059999999999945 1611.7640000000001-24.975000000000023 1503.702-59.20100000000002 1378.594-37.73199999999997 1281.821 21.293000000000006 1192.816 75.57999999999998 1174.143 192.488 1114.751 278.17 1063.434 352.201 986.203 405.426 956.5840000000001 490.495 923.013 586.912 913.544 690.444 936.5740000000001 789.907 962.98 903.9490000000001 990.096 1045.673 1096.454 1094.568 1205.038 1144.4859999999999 1320.98 1032.133 1440 1021.341" fill="#904f16"></path>
    </g>
    <defs>
        <mask id="SvgjsMask1097">
            <rect width="1440" height="560" fill="#ffffff"></rect>
        </mask>
    </defs>
</svg>