<svg xmlns="http://www.w3.org/2000/svg" version="1.1" xmlnsXlink="http://www.w3.org/1999/xlink" xmlnsSvgjs="http://svgjs.dev/svgjs" width="1440" height="560" preserveAspectRatio="none" viewBox="0 0 1440 560">
    <g mask="url(&quot;#SvgjsMask1102&quot;)" fill="none">
        <rect width="1440" height="560" x="0" y="0" fill="rgba(81, 46, 95, 1)"></rect>
        <path d="M0,303.63C67.134,298.051,133.831,328.671,197.952,308.019C273.017,283.842,365.806,253.151,389.885,178.055C414.433,101.494,329.321,33.574,311.054,-44.723C295.018,-113.459,331.883,-194.445,289.767,-251.084C247.417,-308.038,167.454,-320.136,97.471,-331.955C33.444,-342.768,-28.048,-321.819,-92.691,-315.677C-175.398,-307.819,-285.048,-356.729,-335.612,-290.809C-387.333,-223.38,-298.966,-128.3,-301.571,-43.359C-303.746,27.545,-364.036,90.161,-349.424,159.577C-333.716,234.2,-290.793,313.714,-220.291,342.779C-149.914,371.793,-75.861,309.935,0,303.63" fill="#41254c"></path>
        <path d="M1440 1140.6689999999999C1545.666 1124.4589999999998 1618.364 1032.295 1696.95 959.822 1763.125 898.794 1819.475 832.1279999999999 1861.1109999999999 752.315 1904.72 668.719 1939.992 581.871 1943.271 487.641 1947.011 380.183 1952.219 258.427 1881.106 177.779 1810.0520000000001 97.19799999999998 1686.895 99.17599999999999 1581.661 77.54700000000003 1484.957 57.67099999999999 1389.36 39.06600000000003 1292.231 56.745000000000005 1187.098 75.88 1070.151 98.31900000000002 1004.462 182.60399999999998 939.288 266.228 949.451 384.278 954.4200000000001 490.18399999999997 958.69 581.194 1003.995 659.778 1030.933 746.815 1062.66 849.3240000000001 1049.5439999999999 972.8530000000001 1126.845 1047.279 1206.936 1124.392 1330.106 1157.527 1440 1140.6689999999999" fill="#613772"></path>
    </g>
    <defs>
        <mask id="SvgjsMask1102">
            <rect width="1440" height="560" fill="#ffffff"></rect>
        </mask>
    </defs>
</svg>