<svg xmlns="http://www.w3.org/2000/svg" version="1.1" xmlns:xlink="http://www.w3.org/1999/xlink" xmlns:svgjs="http://svgjs.dev/svgjs" width="3000" height="1500" preserveAspectRatio="none" viewBox="0 0 3000 1500"><g mask="url(&quot;#SvgjsMask1675&quot;)" fill="none"><rect width="3000" height="1500" x="0" y="0" fill="url(&quot;#SvgjsLinearGradient1676&quot;)"></rect><path d="M -2891.886582599129,540 C -2591.89,654.4 -1991.89,1096.2 -1391.8865825991286,1112 C -791.89,1127.8 -491.89,587.2 108.11341740087141,619 C 708.11,650.8 1029.74,1360.8 1608.1134174008714,1271 C 2186.49,1181.2 2721.62,390.2 3000,170" stroke="rgba(51, 121, 194, 0.58)" stroke-width="2"></path><path d="M -1811.7573853623835,599 C -1511.76,722.4 -911.76,1291.6 -311.7573853623836,1216 C 288.24,1140.4 588.24,275 1188.2426146376165,221 C 1788.24,167 2325.89,903 2688.2426146376165,946 C 3050.59,989 2937.65,538 3000,436" stroke="rgba(51, 121, 194, 0.58)" stroke-width="2"></path><path d="M -524.2313546077014,692 C -224.23,774 375.77,1187.8 975.7686453922986,1102 C 1575.77,1016.2 1875.77,267.6 2475.768645392299,263 C 3075.77,258.4 3870.92,1004.8 3975.768645392299,1079 C 4080.61,1153.2 3195.15,723 3000,634" stroke="rgba(51, 121, 194, 0.58)" stroke-width="2"></path><path d="M -2483.8085687486227,275 C -2183.81,423.2 -1583.81,994.4 -983.8085687486229,1016 C -383.81,1037.6 -83.81,365.8 516.1914312513771,383 C 1116.19,400.2 1519.43,1113 2016.1914312513773,1102 C 2512.95,1091 2803.24,482.8 3000,328" stroke="rgba(51, 121, 194, 0.58)" stroke-width="2"></path></g><defs><mask id="SvgjsMask1675"><rect width="3000" height="1500" fill="#ffffff"></rect></mask><linearGradient x1="12.5%" y1="-25%" x2="87.5%" y2="125%" gradientUnits="userSpaceOnUse" id="SvgjsLinearGradient1676"><stop stop-color="#0e2a47" offset="0"></stop><stop stop-color="rgba(30, 86, 158, 1)" offset="1"></stop></linearGradient></defs></svg>