<svg xmlns="http://www.w3.org/2000/svg" version="1.1" xmlns:xlink="http://www.w3.org/1999/xlink" xmlns:svgjs="http://svgjs.dev/svgjs" width="3000" height="1500" preserveAspectRatio="none" viewBox="0 0 3000 1500"><g mask="url(&quot;#SvgjsMask1685&quot;)" fill="none"><rect width="3000" height="1500" x="0" y="0" fill="url(&quot;#SvgjsLinearGradient1686&quot;)"></rect><path d="M -256.1007251165056,196 C 43.9,323.8 643.9,799.8 1243.8992748834944,835 C 1843.9,870.2 2143.9,329.4 2743.8992748834944,372 C 3343.9,414.6 4192.68,1067.4 4243.899274883494,1048 C 4295.12,1028.6 3248.78,429.6 3000,275" stroke="rgba(51, 121, 194, 0.58)" stroke-width="2"></path><path d="M -2499.3272771540082,1192 C -2199.33,1095.6 -1599.33,785 -999.3272771540084,710 C -399.33,635 -99.33,925.8 500.67272284599164,817 C 1100.67,708.2 1500.81,107.8 2000.6727228459918,166 C 2500.54,224.2 2800.13,919.6 3000,1108" stroke="rgba(51, 121, 194, 0.58)" stroke-width="2"></path><path d="M -2415.130724669217,1247 C -2115.13,1041.6 -1515.13,202.2 -915.1307246692173,220 C -315.13,237.8 -15.13,1312.2 584.8692753307827,1336 C 1184.87,1359.8 1601.84,372 2084.869275330783,339 C 2567.9,306 2816.97,1004.6 3000,1171" stroke="rgba(51, 121, 194, 0.58)" stroke-width="2"></path><path d="M -1034.7157003320754,380 C -734.72,559.2 -134.72,1282.4 465.28429966792464,1276 C 1065.28,1269.6 1365.28,392.2 1965.2842996679246,348 C 2565.28,303.8 3258.34,1005.4 3465.2842996679246,1055 C 3672.23,1104.6 3093.06,687.8 3000,596" stroke="rgba(51, 121, 194, 0.58)" stroke-width="2"></path></g><defs><mask id="SvgjsMask1685"><rect width="3000" height="1500" fill="#ffffff"></rect></mask><linearGradient x1="12.5%" y1="-25%" x2="87.5%" y2="125%" gradientUnits="userSpaceOnUse" id="SvgjsLinearGradient1686"><stop stop-color="#0e2a47" offset="0"></stop><stop stop-color="rgba(30, 86, 158, 1)" offset="1"></stop></linearGradient></defs></svg>