<svg xmlns="http://www.w3.org/2000/svg" version="1.1" xmlnsXlink="http://www.w3.org/1999/xlink" xmlnsSvgjs="http://svgjs.dev/svgjs" width="1440" height="560" preserveAspectRatio="none" viewBox="0 0 1440 560">
    <g mask="url(&quot;#SvgjsMask1095&quot;)" fill="none">
        <rect width="1440" height="560" x="0" y="0" fill="rgba(24, 106, 59, 1)"></rect>
        <path d="M0,697.659C128.473,709.062,189.876,533.953,296.731,461.722C400.087,391.857,569.816,397.205,615.951,281.295C662.524,164.286,543.452,48.042,509.677,-73.281C481.246,-175.408,496.166,-290.078,433.153,-375.329C368.075,-463.373,261.823,-504.945,160.305,-545.947C49.122,-590.852,-67.135,-653.983,-183.315,-624.313C-300.363,-594.422,-365.388,-476.134,-450.145,-390.053C-541.289,-297.485,-667.303,-226.476,-699.062,-100.51C-731.641,28.706,-706.028,181.428,-619.859,283.08C-536.746,381.126,-371.545,340.434,-264.706,411.891C-154.547,485.568,-132.008,685.942,0,697.659" fill="#13552f"></path>
        <path d="M1440 954.5930000000001C1512.229 945.63 1555.504 873.12 1610.862 825.867 1658.186 785.471 1711.564 752.267 1741.15 697.531 1772.016 640.426 1775.239 575.611 1781.075 510.961 1788.591 427.699 1839.367 324.273 1780.172 265.239 1719.499 204.731 1611.382 280.296 1528.392 258.964 1449.975 238.80700000000002 1397.916 130.267 1318.614 146.59699999999998 1240.8609999999999 162.608 1224.9 268.731 1176.267 331.474 1130.952 389.93600000000004 1057.253 430.368 1042.482 502.846 1027.503 576.346 1062.526 650.082 1097.8519999999999 716.254 1131.58 779.433 1180.76 831.008 1239.526 871.944 1300.061 914.113 1366.786 963.678 1440 954.5930000000001" fill="#1d7f47"></path>
    </g>
    <defs>
        <mask id="SvgjsMask1095">
            <rect width="1440" height="560" fill="#ffffff"></rect>
        </mask>
    </defs>
</svg>