<svg xmlns="http://www.w3.org/2000/svg" version="1.1" xmlns:xlink="http://www.w3.org/1999/xlink" xmlns:svgjs="http://svgjs.dev/svgjs" width="3000" height="1500" preserveAspectRatio="none" viewBox="0 0 3000 1500"><g mask="url(&quot;#SvgjsMask1683&quot;)" fill="none"><rect width="3000" height="1500" x="0" y="0" fill="url(&quot;#SvgjsLinearGradient1684&quot;)"></rect><path d="M -1116.3464718110147,906 C -816.35,775.8 -216.35,275.4 383.6535281889854,255 C 983.65,234.6 1283.65,740.6 1883.6535281889853,804 C 2483.65,867.4 3160.38,521.8 3383.6535281889855,572 C 3606.92,622.2 3076.73,958.4 3000,1055" stroke="rgba(51, 121, 194, 0.58)" stroke-width="2"></path><path d="M -1137.2099372109144,1041 C -837.21,909.6 -237.21,394.8 362.79006278908554,384 C 962.79,373.2 1262.79,990 1862.7900627890856,987 C 2462.79,984 3135.35,395.2 3362.7900627890854,369 C 3590.23,342.8 3072.56,758.6 3000,856" stroke="rgba(51, 121, 194, 0.58)" stroke-width="2"></path><path d="M -2352.369895553034,815 C -2052.37,788.4 -1452.37,599.2 -852.3698955530341,682 C -252.37,764.8 47.63,1239.6 647.6301044469659,1229 C 1247.63,1218.4 1677.16,686.6 2147.630104446966,629 C 2618.1,571.4 2829.53,878.6 3000,941" stroke="rgba(51, 121, 194, 0.58)" stroke-width="2"></path><path d="M -44.94298211027535,862 C 255.06,720.4 855.06,143.6 1455.0570178897246,154 C 2055.06,164.4 2355.06,839 2955.0570178897246,914 C 3555.06,989 4446.07,481.8 4455.057017889725,529 C 4464.05,576.2 3291.01,1025.8 3000,1150" stroke="rgba(51, 121, 194, 0.58)" stroke-width="2"></path></g><defs><mask id="SvgjsMask1683"><rect width="3000" height="1500" fill="#ffffff"></rect></mask><linearGradient x1="12.5%" y1="-25%" x2="87.5%" y2="125%" gradientUnits="userSpaceOnUse" id="SvgjsLinearGradient1684"><stop stop-color="#0e2a47" offset="0"></stop><stop stop-color="rgba(30, 86, 158, 1)" offset="1"></stop></linearGradient></defs></svg>